<svg width="200" height="200" viewBox="0 0 200 200" fill="none" xmlns="http://www.w3.org/2000/svg">
  <rect width="200" height="200" fill="#FAF9F5"/>
  <circle cx="100" cy="100" r="85" fill="#F3F1EA" stroke="#E8E6DF" stroke-width="2"/>
  <path d="M100 45C100 45 135 85 135 120C135 139.33 119.33 155 100 155C80.67 155 65 139.33 65 120C65 85 100 45 100 45Z" fill="#C5D1C5" opacity="0.4"/>
  <path d="M100 45C100 45 135 85 135 120C135 139.33 119.33 155 100 155C80.67 155 65 139.33 65 120C65 85 100 45 100 45Z" stroke="#4B644C" stroke-width="2" stroke-linecap="round" stroke-linejoin="round"/>
  <path d="M100 70V145" stroke="#4B644C" stroke-width="1.5" stroke-linecap="round"/>
  <path d="M100 100C115 90 127 93 127 93" stroke="#4B644C" stroke-width="1.5" stroke-linecap="round"/>
  <path d="M100 118C85 108 73 111 73 111" stroke="#4B644C" stroke-width="1.5" stroke-linecap="round"/>
</svg>
